<?xml version="1.0" encoding="utf-8"?>
<!-- Generator: Adobe Illustrator 19.1.0, SVG Export Plug-In . SVG Version: 6.00 Build 0)  -->
<svg version="1.1" xmlns="http://www.w3.org/2000/svg" xmlns:xlink="http://www.w3.org/1999/xlink" x="0px" y="0px"
	 viewBox="-1.5 -6.1 47.1 45.4" xml:space="preserve">
<g>
	<g>
		<polygon points="8.6,37 0.4,11.4 21.9,-4.3 43.4,11.5 35.1,37 		" fill="#1D3649"/>
		<polygon points="8.6,37 0.4,11.4 21.9,-4.3 43.4,11.5 35.1,37 		" fill="none" stroke="#152935" stroke-width="2" stroke-miterlimit="10"/>
	</g>
</g>
<line x1="21.4" y1="8.3" x2="26.9" y2="12.1" fill="none" stroke="#F9F9FB" stroke-miterlimit="10"/>
<line x1="16.9" y1="8.3" x2="11.4" y2="12.1" fill="none" stroke="#F9F9FB" stroke-miterlimit="10"/>
<line x1="26.9" y1="15.3" x2="21.4" y2="19.1" fill="none" stroke="#F9F9FB" stroke-miterlimit="10"/>
<line x1="31.4" y1="15.3" x2="36.9" y2="19.1" fill="none" stroke="#F9F9FB" stroke-miterlimit="10"/>
<circle cx="19.4" cy="6.8" r="2.5" fill="#F9F9FB" stroke="#152935" stroke-miterlimit="10"/>
<line x1="29.5" y1="16" x2="29.5" y2="19" fill="none" stroke="#F9F9FB" stroke-miterlimit="10"/>
<circle cx="29.4" cy="13.8" r="2.5" fill="#F9F9FB" stroke="#152935" stroke-miterlimit="10"/>
<rect x="6.2" y="13.3" width="11.3" height="9.6" fill="none"/>
<text transform="matrix(1 0 0 1 6.1944 21.882)" fill="#41D6C3" font-family="'HelvNeueRomanforIBM'" font-size="12px">C</text>
<rect x="18.3" y="21.9" width="18.2" height="9.6" fill="none"/>
<text transform="matrix(1 0 0 1 18.3326 30.5026)" fill="#41D6C3" font-family="'HelvNeueRomanforIBM'" font-size="12px">5.0</text>
</svg>
