<svg version="1.1" xmlns="http://www.w3.org/2000/svg" xmlns:xlink="http://www.w3.org/1999/xlink" x="0px" y="0px"
	 viewBox="-0.9 -1.4 46.5 41.8" xml:space="preserve">
<g>
	<g>
		<polygon points="11.1,37 0.4,18.5 11.1,0 32.6,0 43.4,18.5 32.6,37 		" fill="#1D3649"/>
		<polygon points="11.1,37 0.4,18.5 11.1,0 32.6,0 43.4,18.5 32.6,37 		" fill="none" stroke="#152935" stroke-width="2" stroke-miterlimit="10"/>
	</g>
</g>
<line x1="10" y1="8.5" x2="25" y2="8.5" fill="none" stroke="#F9F9FB" stroke-width="3" stroke-miterlimit="10"/>
<polygon points="29,11.6 29,10 25,10 25,7 29,7 29,4.9 34.8,8.2 " fill="#F9F9FB"/>
<line x1="10" y1="18.5" x2="25" y2="18.5" fill="none" stroke="#F9F9FB" stroke-width="3" stroke-miterlimit="10"/>
<polygon points="29,21.6 29,20 25,20 25,17 29,17 29,14.9 34.8,18.2 " fill="#F9F9FB"/>
<polygon points="29,31.6 29,30 25,30 25,27 29,27 29,24.9 34.8,28.2 " fill="#F9F9FB"/>
<rect x="15.2" y="24.5" width="1.9" height="7.7" fill="#41D6C3"/>
<rect x="12.3" y="27.3" width="7.7" height="1.9" fill="#41D6C3"/>
</svg>
