<?xml version="1.0" encoding="utf-8"?>
<!-- Generator: Adobe Illustrator 19.1.0, SVG Export Plug-In . SVG Version: 6.00 Build 0)  -->
<svg version="1.1" xmlns="http://www.w3.org/2000/svg" xmlns:xlink="http://www.w3.org/1999/xlink" x="0px" y="0px"
	 viewBox="16 -14.4 47.1 45.4" xml:space="preserve">
<g>
	<g>
		<polygon fill="#1D3649" points="28.1,26 17.4,7.5 28.1,-11 49.6,-11 60.4,7.5 49.6,26 		"/>
		<polygon fill="none" stroke="#152935" stroke-width="2" stroke-miterlimit="10" points="28.1,26 17.4,7.5 28.1,-11 49.6,-11 60.4,7.5 49.6,26 		"/>
	</g>
</g>
<line fill="none" stroke="#F9F9FB" stroke-width="3" stroke-miterlimit="10" x1="25" y1="7.5" x2="30" y2="7.5"/>
<line fill="none" stroke="#F9F9FB" stroke-width="3" stroke-miterlimit="10" x1="34" y1="7.5" x2="39" y2="7.5"/>
<polygon fill="#F9F9FB" points="49,11.2 49,9 43,9 43,6 49,6 49,2.5 56.5,6.8 "/>
<polygon fill="#41D6C3" points="38.4,12 40,12 40,8 42,8 42,12 44.1,12 41.2,16.9 "/>
<rect x="40" y="3.4" fill="#41D6C3" width="2" height="4.2"/>
<polygon fill="#41D6C3" points="35.1,4 33,4 33,8 31,8 31,4 29.4,4 32.2,-0.9 "/>
<rect x="31" y="7.2" fill="#41D6C3" width="2" height="4.5"/>
</svg>
