<?xml version="1.0" encoding="utf-8"?>
<!-- Generator: Adobe Illustrator 19.1.0, SVG Export Plug-In . SVG Version: 6.00 Build 0)  -->
<svg version="1.1" xmlns="http://www.w3.org/2000/svg" xmlns:xlink="http://www.w3.org/1999/xlink" x="0px" y="0px"
	 viewBox="-1.5 -6.1 47.1 45.4" xml:space="preserve">
<g>
	<g>
		<rect x="0.5" y="-4.1" fill="#1D3649" width="40" height="40"/>
		<rect x="0.5" y="-4.1" fill="none" stroke="#152935" stroke-width="2" stroke-miterlimit="10" width="40" height="40"/>
	</g>
</g>
<rect x="6.8" y="5.4" fill="#F9F9FB" stroke="#152935" stroke-width="2" stroke-miterlimit="10" width="28.5" height="20.3"/>
<line fill="none" stroke="#1D3649" stroke-miterlimit="10" x1="12.5" y1="6" x2="12.5" y2="26"/>
<line fill="none" stroke="#1D3649" stroke-miterlimit="10" x1="20.5" y1="6" x2="20.5" y2="26"/>
<line fill="none" stroke="#1D3649" stroke-miterlimit="10" x1="28.5" y1="6" x2="28.5" y2="26"/>
<line fill="none" stroke="#1D3649" stroke-miterlimit="10" x1="7" y1="8.5" x2="35" y2="8.5"/>
<line fill="none" stroke="#41D6C3" stroke-miterlimit="10" x1="9" y1="11.5" x2="11" y2="11.5"/>
<line fill="none" stroke="#41D6C3" stroke-miterlimit="10" x1="14" y1="11.5" x2="19" y2="11.5"/>
<line fill="none" stroke="#41D6C3" stroke-miterlimit="10" x1="22" y1="11.5" x2="27" y2="11.5"/>
<line fill="none" stroke="#41D6C3" stroke-miterlimit="10" x1="30" y1="11.5" x2="33" y2="11.5"/>
<line fill="none" stroke="#41D6C3" stroke-miterlimit="10" x1="9" y1="14.5" x2="11" y2="14.5"/>
<line fill="none" stroke="#41D6C3" stroke-miterlimit="10" x1="14" y1="14.5" x2="19" y2="14.5"/>
<line fill="none" stroke="#41D6C3" stroke-miterlimit="10" x1="22" y1="14.5" x2="27" y2="14.5"/>
<line fill="none" stroke="#41D6C3" stroke-miterlimit="10" x1="30" y1="14.5" x2="33" y2="14.5"/>
<line fill="none" stroke="#41D6C3" stroke-miterlimit="10" x1="9" y1="17.5" x2="11" y2="17.5"/>
<line fill="none" stroke="#41D6C3" stroke-miterlimit="10" x1="14" y1="17.5" x2="19" y2="17.5"/>
<line fill="none" stroke="#41D6C3" stroke-miterlimit="10" x1="22" y1="17.5" x2="27" y2="17.5"/>
<line fill="none" stroke="#41D6C3" stroke-miterlimit="10" x1="30" y1="17.5" x2="33" y2="17.5"/>
<line fill="none" stroke="#41D6C3" stroke-miterlimit="10" x1="9" y1="20.5" x2="11" y2="20.5"/>
<line fill="none" stroke="#41D6C3" stroke-miterlimit="10" x1="14" y1="20.5" x2="19" y2="20.5"/>
<line fill="none" stroke="#41D6C3" stroke-miterlimit="10" x1="22" y1="20.5" x2="27" y2="20.5"/>
<line fill="none" stroke="#41D6C3" stroke-miterlimit="10" x1="30" y1="20.5" x2="33" y2="20.5"/>
</svg>
